:FULLY-SPECIFIED
:FORCE-ALL-JOINTS-BE-3DOF
:DEGREES
1835
root 6.86218 13.8398 27.7502 -20.1277 52.6594 -21.8487
lfemur -53.258 28.7179 1.78904
ltibia 68.9066 -0 0
lfoot -6.50191 -8.45292 0.00145116
ltoes -24.8426 0 0
rfemur 3.31448 -3.75665 17.2823
rtibia 50.0712 -0 0
rfoot -25.9486 -31.0681 0.00103532
rtoes -26.0307 0 0
lowerback 13.7651 4.69812 5.12038
upperback -0.28449 7.58946 4.99395
thorax -8.04456 3.6205 0.910868
lowerneck -4.27352 9.28017 2.64657
upperneck 7.85005 12.4044 -1.3687
head 3.65532 6.18555 -0.333426
lclavicle -8.39654e-14 6.93262e-15 0
lhumerus 61.8286 18.5205 108.609
lradius 10.2223 -0 0
lwrist -86.7973 0 0
lhand -31.6192 41.4997 -0.00116504
lfingers 7.12502 -0 0
lthumb -4.88105 71.4234 -0.00112039
rclavicle -8.39654e-14 6.93262e-15 0
rhumerus -71.5706 12.2967 -79.535
rradius 125.273 -0 0
rwrist -23.3377 180 180
rhand -65.8945 20.3787 -4.87938
rfingers 7.12502 -0 0
rthumb -37.7388 -5.20142 -4.82395
1836
root 6.89095 13.8355 27.7599 -20.1669 52.7035 -22.082
lfemur -53.514 28.8264 1.79687
ltibia 69.2141 -0 0
lfoot -6.75965 -8.46499 0.00156436
ltoes -25.0547 0 0
rfemur 3.52462 -3.82563 17.3351
rtibia 49.6948 -0 0
rfoot -25.8853 -31.0331 0.00111607
rtoes -26.5823 0 0
lowerback 13.8004 4.73693 5.2894
upperback -0.319958 7.6748 4.99149
thorax -8.07962 3.65314 0.795189
lowerneck -4.08228 9.65777 2.92961
upperneck 7.74296 12.9217 -1.68419
head 3.6483 6.43965 -0.464165
lclavicle -8.39654e-14 6.93262e-15 0
lhumerus 61.9575 18.222 108.741
lradius 10.2092 -0 0
lwrist -86.8919 0 0
lhand -31.5976 41.3843 -0.00125591
lfingers 7.12502 -0 0
lthumb -4.86016 71.3085 -0.00120778
rclavicle -8.39654e-14 6.93262e-15 0
rhumerus -71.8421 12.2662 -80.0917
rradius 125.32 -0 0
rwrist -26.6539 180 180
rhand -64.45 12.6323 -5.29679
rfingers 7.12502 -0 0
rthumb -36.3531 -13.2187 -5.23918
1837
root 6.91628 13.8318 27.7696 -20.2073 52.7483 -22.3202
lfemur -53.7754 28.9371 1.80429
ltibia 69.5278 -0 0
lfoot -7.02258 -8.4773 0.0016239
ltoes -25.2711 0 0
rfemur 3.73894 -3.8962 17.3888
rtibia 49.3108 -0 0
rfoot -25.8207 -30.9973 0.00115854
rtoes -27.1451 0 0
lowerback 13.8366 4.77641 5.46185
upperback -0.356151 7.76186 4.98892
thorax -8.11546 3.68636 0.67716
lowerneck -3.88501 10.042 3.21998
upperneck 7.63047 13.4487 -2.00772
head 3.64054 6.69883 -0.597633
lclavicle -8.39654e-14 6.93262e-15 0
lhumerus 62.088 17.9172 108.875
lradius 10.1958 -0 0
lwrist -86.9884 0 0
lhand -31.5755 41.2666 -0.00130371
lfingers 7.12502 -0 0
lthumb -4.83885 71.1913 -0.00125375
rclavicle -8.39654e-14 6.93262e-15 0
rhumerus -72.1187 12.2325 -80.6594
rradius 125.368 -0 0
rwrist -30.0368 180 180
rhand -62.9312 4.7177 -5.51862
rfingers 7.12502 -0 0
rthumb -34.893 -21.4094 -5.46
1838
root 6.93837 13.8286 27.7791 -20.2483 52.7933 -22.56
lfemur -54.0384 29.0484 1.81118
ltibia 69.843 -0 0
lfoot -7.2868 -8.48967 0.00162684
ltoes -25.4885 0 0
rfemur 3.95427 -3.96731 17.4424
rtibia 48.9249 -0 0
rfoot -25.7558 -30.9614 0.00116064
rtoes -27.7106 0 0
lowerback 13.8731 4.81598 5.63518
upperback -0.392534 7.84935 4.98627
thorax -8.15154 3.71968 0.558525
lowerneck -3.68455 10.4271 3.5135
upperneck 7.51408 13.9778 -2.33466
head 3.63212 6.95928 -0.731866
lclavicle -8.39654e-14 6.93262e-15 0
lhumerus 62.2183 17.6106 109.008
lradius 10.1824 -0 0
lwrist -87.0854 0 0
lhand -31.5534 41.1483 -0.00130607
lfingers 7.12502 -0 0
lthumb -4.81743 71.0735 -0.00125602
rclavicle -8.39654e-14 6.93262e-15 0
rhumerus -72.3963 12.196 -81.2296
rradius 125.416 -0 0
rwrist -33.4363 180 180
rhand -61.3883 -3.24054 -5.5296
rfingers 7.12502 -0 0
rthumb -33.4086 -29.6449 -5.47093
1839
root 6.95744 13.8259 27.7884 -20.2892 52.8378 -22.7976
lfemur -54.2991 29.1587 1.81742
ltibia 70.1551 -0 0
lfoot -7.54843 -8.50192 0.00157354
ltoes -25.7037 0 0
rfemur 4.16744 -4.03792 17.4953
rtibia 48.5428 -0 0
rfoot -25.6916 -30.9258 0.00112262
rtoes -28.2706 0 0
lowerback 13.9093 4.85506 5.80685
upperback -0.428571 7.93597 4.9836
thorax -8.18734 3.75259 0.441027
lowerneck -3.48382 10.8074 3.80585
upperneck 7.39549 14.501 -2.66024
head 3.62317 7.21715 -0.864896
lclavicle -8.39654e-14 6.93262e-15 0
lhumerus 62.3463 17.3068 109.139
lradius 10.1691 -0 0
lwrist -87.1814 0 0
lhand -31.5314 41.0312 -0.00126328
lfingers 7.12502 -0 0
lthumb -4.79623 70.9568 -0.00121487
rclavicle -8.39654e-14 6.93262e-15 0
rhumerus -72.6708 12.1571 -81.794
rradius 125.463 -0 0
rwrist -36.8025 180 180
rhand -59.8738 -11.117 -5.33089
rfingers 7.12502 -0 0
rthumb -31.9525 -37.7961 -5.27312
